# xmcd
#
# Track frame offsets: 
#        225
#        14490
#        28511
#        41333
#        56018
#        68822
#        87211
#        102047
#        116315
#        129185
#        142221
#        151691
#        159466
#        178636
#        192590
#        210928
#        225270
#        243424
#        257877
#
# Disc length: 3501 seconds
#
# Revision: 0
# Processed by: cddbd v1.5.2PL0 Copyright (c) Steve Scherf et al.
# Submitted via: ExactAudioCopy v0.95a4
#
DISCID=f10daa13
DTITLE=Cristy Lane - æ≠µ‰‘ﬁ√¿ ´ 
DYEAR=2008
DGENRE=
TTITLE0=Softly And Tenderly
TTITLE1=In The Garden
TTITLE2=Whispering Hope
TTITLE3=I Love You More Every Day
TTITLE4=He's Got The Whole World In His Hand 
TTITLE5=How Great Thou Art
TTITLE6=Where The Roses Never Fade
TTITLE7=One Day At A Time
TTITLE8=Just As I Am
TTITLE9=Just A Closer Walk With Thee
TTITLE10=Amazing Grace
TTITLE11=Rock Of Ages
TTITLE12=I See Jesus
TTITLE13=Ave Maria
TTITLE14=Precious Memories
TTITLE15=Sing To The Lord
TTITLE16=I Have A Dream
TTITLE17=Footprints In The Sand
TTITLE18=The Lord's Prayer
EXTD=
EXTT0=
EXTT1=
EXTT2=
EXTT3=
EXTT4=
EXTT5=
EXTT6=
EXTT7=
EXTT8=
EXTT9=
EXTT10=
EXTT11=
EXTT12=
EXTT13=
EXTT14=
EXTT15=
EXTT16=
EXTT17=
EXTT18=
PLAYORDER=
